SplineFontDB: 3.0
FontName: Experiment-Tamil
FullName: Experiment-Tamil
FamilyName: Experiment-Tamil
Weight: Regular
Copyright: Copyright (c) 2015, Pathum Egodawatta
UComments: "2015-9-29: Created with FontForge (http://fontforge.org)"
Version: 0.001
ItalicAngle: 0
UnderlinePosition: 100
UnderlineWidth: 49
Ascent: 1000
Descent: 0
InvalidEm: 0
LayerCount: 3
Layer: 0 0 "Back" 1
Layer: 1 0 "Fore" 0
Layer: 2 0 "new" 1
PreferredKerning: 4
XUID: [1021 779 -1439063335 14876943]
FSType: 0
OS2Version: 0
OS2_WeightWidthSlopeOnly: 0
OS2_UseTypoMetrics: 1
CreationTime: 1443542790
ModificationTime: 1461514290
PfmFamily: 17
TTFWeight: 400
TTFWidth: 5
LineGap: 122
VLineGap: 0
OS2TypoAscent: 129
OS2TypoAOffset: 1
OS2TypoDescent: 0
OS2TypoDOffset: 1
OS2TypoLinegap: 122
OS2WinAscent: 129
OS2WinAOffset: 1
OS2WinDescent: -161
OS2WinDOffset: 1
HheadAscent: 29
HheadAOffset: 1
HheadDescent: 183
HheadDOffset: 1
OS2CapHeight: 0
OS2XHeight: 0
OS2Vendor: 'PfEd'
Lookup: 260 0 0 "'abvm' Above Base Mark in Tamil lookup 0" { "'abvm' Above Base Mark in Tamil lookup 0-1"  } ['abvm' ('DFLT' <'dflt' > 'taml' <'dflt' > ) ]
MarkAttachClasses: 1
DEI: 91125
LangName: 1033
Encoding: Tamil
Compacted: 1
UnicodeInterp: none
NameList: tamil
DisplaySize: -128
AntiAlias: 1
FitToEm: 1
WinInfo: 0 9 6
BeginPrivate: 0
EndPrivate
Grid
-1000 -118 m 0
 2000 -118 l 1024
-1000 734 m 0
 2000 734 l 1024
-1000 822.174682617 m 0
 2000 822.174682617 l 1024
-1000 801 m 0
 2000 801 l 1024
-1000 62 m 0
 2000 62 l 1024
2000 766 m 1024
-1000 1143 m 0
 2000 1143 l 1024
665 1500 m 0
 665 -500 l 1024
149 1500 m 0
 149 -500 l 1024
-1000 499 m 0
 2000 499 l 1024
-1000 612 m 0
 2000 612 l 1024
EndSplineSet
AnchorClass2: "tm_Virama" "'abvm' Above Base Mark in Tamil lookup 0-1" "thn_ubufibi" "" 
BeginChars: 433 86

StartChar: uni0021
Encoding: 404 33 1
Width: 330
VWidth: 153
Flags: HMW
LayerCount: 3
Back
SplineSet
104.568359375 41.4892578125 m 0
 104.568359375 93.21875 145.767578125 126.37890625 196.268554688 126.37890625 c 0
 257.404296875 126.37890625 287.969726562 83.9345703125 287.969726562 32.2060546875 c 0
 287.969726562 -19.5224609375 246.772460938 -54.009765625 196.268554688 -54.009765625 c 0
 145.767578125 -54.009765625 104.568359375 -10.23828125 104.568359375 41.4892578125 c 0
89 752 m 1
 116 776 173 793 207 791 c 5
 207 791 220 759 221 697 c 0
 222 531 197 414 175 211 c 1
 102 206 l 1
 115 399 117 580 89 752 c 1
EndSplineSet
Fore
SplineSet
54.568359375 41.4892578125 m 0
 54.568359375 93.21875 95.767578125 126.37890625 146.268554688 126.37890625 c 0
 207.404296875 126.37890625 237.969726562 83.9345703125 237.969726562 32.2060546875 c 0
 237.969726562 -19.5224609375 196.772460938 -54.009765625 146.268554688 -54.009765625 c 0
 95.767578125 -54.009765625 54.568359375 -10.23828125 54.568359375 41.4892578125 c 0
89 752 m 1
 116 776 183 793 217 791 c 5
 217 791 230 759 231 697 c 4
 232 531 207 414 185 211 c 5
 102 206 l 1
 115 399 117 580 89 752 c 1
EndSplineSet
Layer: 2
SplineSet
104.568359375 41.4892578125 m 0
 104.568359375 93.21875 145.767578125 126.37890625 196.268554688 126.37890625 c 0
 257.404296875 126.37890625 287.969726562 83.9345703125 287.969726562 32.2060546875 c 0
 287.969726562 -19.5224609375 246.772460938 -54.009765625 196.268554688 -54.009765625 c 0
 145.767578125 -54.009765625 104.568359375 -10.23828125 104.568359375 41.4892578125 c 0
89 752 m 1
 116 776 173 793 207 791 c 5
 207 791 220 759 221 697 c 0
 222 531 197 414 175 211 c 1
 102 206 l 1
 115 399 117 580 89 752 c 1
EndSplineSet
EndChar

StartChar: uni0029
Encoding: 405 41 2
Width: 371
VWidth: 153
Flags: HMW
LayerCount: 3
Back
SplineSet
52 -95 m 1
 133 37 189.716796875 241.00390625 192 402 c 0
 194 543 163 696 69 814 c 5
 131 865 l 5
 184 817 292 683 307 489 c 0
 325 262 237 54 117 -133 c 1
 52 -95 l 1
EndSplineSet
Fore
SplineSet
52 -95 m 1
 133 37 189.716796875 241.00390625 192 402 c 0
 194 543 163 696 69 814 c 5
 131 865 l 5
 184 817 292 683 307 489 c 0
 325 262 237 54 117 -133 c 1
 52 -95 l 1
EndSplineSet
Layer: 2
SplineSet
52 -95 m 1
 133 37 189.716796875 241.00390625 192 402 c 0
 194 543 163 696 69 814 c 5
 131 865 l 5
 184 817 292 683 307 489 c 0
 325 262 237 54 117 -133 c 1
 52 -95 l 1
EndSplineSet
EndChar

StartChar: uni0028
Encoding: 406 40 3
Width: 371
VWidth: 153
Flags: HMW
LayerCount: 3
Back
SplineSet
81 235 m 0
 63 462 145 696 265 883 c 1
 336 849 l 1
 255 717 199 483 201 322 c 0
 202 191 215 18 319 -110 c 1
 257 -164 l 1
 199 -118 96 41 81 235 c 0
EndSplineSet
Fore
SplineSet
81 235 m 0
 63 462 145 696 265 883 c 1
 336 849 l 1
 255 717 199 483 201 322 c 0
 202 191 215 18 319 -110 c 1
 257 -164 l 1
 199 -118 96 41 81 235 c 0
EndSplineSet
Layer: 2
SplineSet
81 235 m 0
 63 462 145 696 265 883 c 1
 336 849 l 1
 255 717 199 483 201 322 c 0
 202 191 215 18 319 -110 c 1
 257 -164 l 1
 199 -118 96 41 81 235 c 0
EndSplineSet
EndChar

StartChar: uni002D
Encoding: 407 45 4
Width: 520
VWidth: 153
Flags: HW
LayerCount: 3
Back
SplineSet
39 328 m 1
 53 433 l 1
 246 423 308 423 480 433 c 1
 478 406 472 362 470 328 c 1
 39 328 l 1
EndSplineSet
Fore
SplineSet
39 328 m 1
 53 433 l 1
 246 423 308 423 480 433 c 1
 478 406 472 362 470 328 c 1
 39 328 l 1
EndSplineSet
Layer: 2
SplineSet
39 328 m 1
 53 433 l 1
 246 423 308 423 480 433 c 1
 478 406 472 362 470 328 c 1
 39 328 l 1
EndSplineSet
EndChar

StartChar: uni005F
Encoding: 408 95 5
Width: 669
VWidth: 153
Flags: HW
LayerCount: 3
Back
SplineSet
39 1 m 5
 53 96 l 5
 246 86 457 86 629 96 c 5
 627 69 621 35 619 1 c 5
 39 1 l 5
EndSplineSet
Fore
SplineSet
39 1 m 5
 53 96 l 5
 246 86 457 86 629 96 c 5
 627 69 621 35 619 1 c 5
 39 1 l 5
EndSplineSet
Layer: 2
SplineSet
39 1 m 5
 53 96 l 5
 246 86 457 86 629 96 c 5
 627 69 621 35 619 1 c 5
 39 1 l 5
EndSplineSet
EndChar

StartChar: uni2014
Encoding: 409 8212 6
Width: 1000
VWidth: 153
Flags: HW
LayerCount: 3
Back
SplineSet
39 328 m 1
 53 423 l 1
 246 413 457 413 629 423 c 1
 627 396 621 362 619 328 c 1
 39 328 l 1
EndSplineSet
Fore
SplineSet
39 328 m 1
 39 433 l 1
 960 433 l 1
 960 328 l 1
 39 328 l 1
EndSplineSet
Layer: 2
SplineSet
39 328 m 1
 53 423 l 1
 246 413 457 413 629 423 c 1
 627 396 621 362 619 328 c 1
 39 328 l 1
EndSplineSet
EndChar

StartChar: tml_A
Encoding: 3 2949 10
Width: 1214
VWidth: 0
Flags: HW
LayerCount: 3
Back
Fore
SplineSet
1024 637 m 1
 1033.28320312 499.888671875 1036.68652344 136.452148438 1024 -114 c 1
 1138 -114 l 1
 1131.86328125 -7.5654296875 1124.03125 398.655273438 1144 657 c 1
 1024 637 l 1
400 -40 m 0
 252.461914062 -40 135.694335938 11.6767578125 138 108 c 0
 139.447265625 168.46484375 185.501953125 213.66015625 276 216 c 0
 519.314453125 214.088867188 723.697265625 219 970 219 c 5
 1069.10742188 219.14453125 1065.42563172 165.084518572 1102 213 c 0
 1116.92407046 232.551780508 1123 292 1098 294 c 2
 344 284 l 1
 189.125976562 284.454101562 68.1328125 239.490234375 70 92 c 0
 71.25 -6.7509765625 144.9375 -128 398 -128 c 0
 723.245117188 -128 834.33203125 74.4599609375 866 256.802734375 c 1
 868.098632812 268.88671875 870.756835938 280.970703125 872 293 c 0
 899.111328125 555.250976562 777.890569436 668.5982711 611 681 c 0
 449.16505602 693.026042625 336.352539062 588.419921875 335 454 c 0
 333.979492188 352.567382812 417.826171875 314.521484375 477 315 c 0
 552.364257812 315.609375 610.802502472 367.342143973 615 448 c 0
 618.993164062 524.731445312 552.016601562 557.688476562 505 558 c 0
 452.159179688 558.349609375 391.192382812 522.809570312 371 446 c 1
 391 422 l 1
 412.279296875 473.454101562 448.00390625 500.310546875 479 500 c 0
 507.315429688 499.716796875 538.424804688 481.924804688 538 441 c 0
 537.486328125 391.497070312 508.62890625 368.047851562 466 368 c 0
 432.703125 367.962890625 386.986328125 397.892578125 388 468 c 0
 388.987304688 536.317382812 451.193718676 606.789721536 553 605 c 0
 721.374023438 602.040039062 788.044921875 470.619140625 765 296 c 0
 763.279296875 282.9609375 766.96484375 269.622070312 764 256.13671875 c 1
 741.182617188 116.9765625 646.051757812 -40 400 -40 c 0
EndSplineSet
Layer: 2
EndChar

StartChar: tml_U
Encoding: 7 2953 14
Width: 1214
VWidth: 0
Flags: HWO
LayerCount: 3
Back
Fore
SplineSet
430 100 m 0
 282.461914062 100 118 56.3505859375 118 -40 c 0
 118 -159 185.501953125 -166.33984375 276 -164 c 0
 519.314453125 -165.911132812 723.697265625 -161 970 -161 c 1
 1069.10742188 -160.85546875 1065.42578125 -214.915039062 1102 -167 c 0
 1116.92382812 -147.448242188 1123 -88 1098 -86 c 2
 344 -96 l 1
 189.125976562 -95.5458984375 215 -100 215 -40 c 0
 215 58.7587890625 174.9375 12 428 12 c 0
 764.291015625 12 650.701171875 -23.09375 672 183 c 4
 672.522460938 188.055664062 672.990234375 193.0546875 673.403320312 198 c 5
 694.420898438 449.583007812 574.673828125 558.836914062 411 571 c 4
 249.165039062 583.026367188 136.352539062 478.419921875 135 344 c 4
 133.979492188 242.567382812 217.826171875 204.521484375 277 205 c 4
 352.364257812 205.609375 410.802734375 257.341796875 415 338 c 4
 418.993164062 414.731445312 352.016601562 447.688476562 305 448 c 4
 252.159179688 448.349609375 191.192382812 412.809570312 171 336 c 5
 191 312 l 5
 212.279296875 363.454101562 248.00390625 390.310546875 279 390 c 4
 307.315429688 389.716796875 338.424804688 371.924804688 338 331 c 4
 337.486328125 281.497070312 308.62890625 258.047851562 266 258 c 4
 232.703125 257.962890625 186.986328125 287.892578125 188 358 c 4
 188.987304688 426.317382812 251.193359375 496.790039062 353 495 c 4
 517.495117188 492.108398438 584.918945312 366.606445312 566.450195312 198 c 5
 566.014648438 194.0234375 565.53125 190.0234375 565 186 c 4
 543.056640625 19.716796875 701.336914062 100 430 100 c 0
EndSplineSet
Layer: 2
EndChar

StartChar: tml_Ee
Encoding: 10 2959 17
Width: 910
VWidth: 0
Flags: HW
LayerCount: 3
Back
Fore
SplineSet
749 341 m 0
 749 374 775 400 808 400 c 0
 841 400 867 374 867 341 c 0
 867 308 841 282 808 282 c 0
 775 282 749 308 749 341 c 0
309 341 m 0
 309 374 335 400 368 400 c 0
 401 400 427 374 427 341 c 0
 427 308 401 282 368 282 c 0
 335 282 309 308 309 341 c 0
146 591 m 25
 477 591 l 1
 876 591 l 24
 858 660 l 17
 665.666992188 651.356445312 173.333007812 652.305664062 71 660 c 1
 146 591 l 25
534 0 m 1
 658 0 l 1
 648.3359375 148.243164062 649.337890625 491.138671875 658 634 c 1
 534 634 l 1
 543.971679688 461.95703125 541.15625 165.733398438 534 0 c 1
71 0 m 1
 196 0 l 1
 186.3359375 148.243164062 182.337890625 511.138671875 191 654 c 1
 71 659 l 1
 80.9658203125 476.8984375 77.87890625 232.63671875 71 0 c 1
EndSplineSet
Layer: 2
EndChar

StartChar: tml_Ka
Encoding: 15 2965 22
Width: 963
VWidth: 0
Flags: HW
AnchorPoint: "tm_Virama" 494 695 basechar 0
LayerCount: 3
Back
SplineSet
652.518554688 27.2958984375 m 5
 739.8828125 42.333984375 776.766601562 113.477539062 777 192 c 4
 777.280273438 286.163085938 724.498046875 331.47265625 632 333 c 4
 570 333 l 4
 541 337 l 5
 326 337 l 4
 205 337 119 288 119 185 c 4
 119 91.865234375 194.679603551 45.6439488355 308 46 c 4
 451.905273438 46.4521484375 478.57421875 120.428710938 480 216 c 4
 480.787109375 352 l 5
 486.934570312 390 l 5
 487 569 l 5
 286 569 l 28
 286 351 l 4
 211 351 l 4
 211 638 l 21
 313.333007812 630.305664062 595.666992188 629.356445312 788 638 c 13
 806 569 l 28
 609 569 l 5
 586.104492188 473.515625 613.94921875 300.138671875 601 163 c 5
 587 54 504 -30 306 -30 c 4
 115.81640625 -30 51.0693359375 70.6591796875 51.533203125 176 c 4
 52.1962890625 326.583984375 166.6640625 400.888671875 333 405 c 4
 417.043945312 407.077148438 492.086914062 407.727539062 668 405 c 4
 797 403 896.633789062 351.690429688 898 200 c 4
 899.294921875 56.21875 774.58984375 -28.8564453125 662.473632812 -28.26953125 c 5
 652.518554688 27.2958984375 l 5
EndSplineSet
Fore
SplineSet
632.518554688 17.2958984375 m 1
 769.8828125 30.333984375 791.703125 130.477539062 787 219 c 0
 783.065429688 293.059570312 714.498046875 331.47265625 632 333 c 0
 570 333 l 0
 541 337 l 1
 316 337 l 0
 195 337 119 298 119 185 c 0
 119 91.865234375 194.679533225 45.6670830645 308 46 c 0
 461.905273438 46.4521484375 480.57421875 120.428710938 482 216 c 0
 482.787109375 352 l 1
 486.934570312 390 l 1
 488.309000145 444.428797901 489 533 487 569 c 1
 286 569 l 24
 286 351 l 0
 211 351 l 0
 211 638 l 17
 313.333007812 630.305664062 605.666992188 629.356445312 798 638 c 13
 816 569 l 28
 608 569 l 1
 595.104492188 453.515625 616.94921875 300.138671875 604 163 c 1
 590 54 504 -30 306 -30 c 0
 115.81640625 -30 51.0693359375 70.6591796875 51.533203125 176 c 0
 52.1962890625 326.583984375 156.6640625 400.888671875 323 405 c 0
 407.043945312 407.077148438 512.086914062 407.727539062 688 405 c 0
 817 403 907.16796875 344.418945312 898 193 c 0
 889.294921875 49.21875 804.58984375 -28.8564453125 642.473632812 -28.26953125 c 1
 632.518554688 17.2958984375 l 1
EndSplineSet
Layer: 2
EndChar

StartChar: tml_Tta
Encoding: 20 2975 27
Width: 971
VWidth: 0
Flags: HW
AnchorPoint: "tm_Virama" 400 695 basechar 0
LayerCount: 3
Back
Fore
SplineSet
90 70 m 1
 267.110351562 67.5576171875 697.266601562 69.9345703125 911 70 c 1
 911 0 l 1
 90 0 l 1
 90 70 l 1
71 636 m 1
 196 646 l 1
 186.3359375 497.756835938 182.337890625 142.861328125 191 0 c 1
 70 0 l 1
 79.9658203125 182.1015625 77.87890625 403.36328125 71 636 c 1
EndSplineSet
Layer: 2
EndChar

StartChar: tml_Nna
Encoding: 21 2979 28
Width: 971
VWidth: 0
Flags: HW
AnchorPoint: "tm_Virama" 400 695 basechar 0
LayerCount: 3
Back
Fore
SplineSet
90 70 m 1
 267.110351562 67.5576171875 697.266601562 69.9345703125 911 70 c 1
 911 0 l 1
 90 0 l 1
 90 70 l 1
71 636 m 1
 196 646 l 1
 186.3359375 497.756835938 182.337890625 142.861328125 191 0 c 1
 70 0 l 1
 79.9658203125 182.1015625 77.87890625 403.36328125 71 636 c 1
EndSplineSet
Layer: 2
EndChar

StartChar: tml_Ta
Encoding: 22 2980 29
Width: 963
VWidth: 0
Flags: HW
AnchorPoint: "tm_Virama" 494 695 basechar 0
LayerCount: 3
Back
Fore
SplineSet
377 -111 m 0
 726.486328125 -109.857421875 804.12890625 -24.974609375 807 135 c 0
 809.228515625 259.188476562 744.498046875 331.47265625 632 333 c 0
 570 333 l 0
 541 337 l 1
 316 337 l 0
 195 337 119 298 119 185 c 0
 119 91.865234375 194.679533225 45.6670830645 308 46 c 0
 461.905273438 46.4521484375 480.57421875 120.428710938 482 216 c 0
 482.787109375 352 l 1
 486.934570312 390 l 1
 488.309000145 444.428797901 489 533 487 569 c 1
 286 569 l 24
 286 351 l 0
 211 351 l 0
 211 638 l 17
 313.333007812 630.305664062 605.666992188 629.356445312 798 638 c 9
 816 569 l 24
 608 569 l 1
 595.104492188 453.515625 616.94921875 300.138671875 604 163 c 1
 590 54 504 -30 306 -30 c 0
 115.81640625 -30 51.0693359375 70.6591796875 51.533203125 176 c 0
 52.1962890625 326.583984375 156.6640625 400.888671875 323 405 c 0
 407.043945312 407.077148438 502.083984375 407.53125 678 405 c 0
 817 403 924.122505131 310.418670521 925 169 c 0
 926.135526263 -14.0034796773 838.811523438 -176.12890625 487 -178 c 0
 360.786132812 -178.670898438 241.2421875 -207.481445312 332 -365 c 1
 331.770507812 -363.833984375 l 0
 279 -395 l 1
 265.77734375 -399.594726562 199.002929688 -321.547851562 201 -251 c 0
 204 -145 306.318359375 -111.231445312 377 -111 c 0
EndSplineSet
Layer: 2
EndChar

StartChar: tml_Na
Encoding: 23 2984 30
Width: 963
VWidth: 0
Flags: HW
AnchorPoint: "tm_Virama" 494 695 basechar 0
LayerCount: 3
Back
Fore
SplineSet
377 -101 m 0
 504 -91 688.165983411 27.4800752485 708.321061664 37.9999987899 c 1
 778.3140496 74.5327709408 790.651612123 150.269168576 787 219 c 0
 783.065429688 293.059570312 714.498046875 331.47265625 632 333 c 0
 570 333 l 0
 541 337 l 1
 316 337 l 0
 195 337 119 298 119 185 c 0
 119 91.865234375 194.679533225 45.6670830645 308 46 c 0
 461.905273438 46.4521484375 480.57421875 120.428710938 482 216 c 0
 482.787109375 352 l 1
 486.934570312 390 l 1
 488.309000145 444.428797901 489 533 487 569 c 1
 286 569 l 24
 286 351 l 0
 211 351 l 0
 211 638 l 17
 313.333007812 630.305664062 605.666992188 629.356445312 798 638 c 9
 816 569 l 24
 608 569 l 1
 595.104492188 453.515625 616.94921875 300.138671875 604 163 c 1
 590 54 504 -30 306 -30 c 0
 115.81640625 -30 51.0693359375 70.6591796875 51.533203125 176 c 0
 52.1962890625 326.583984375 156.6640625 400.888671875 323 405 c 0
 407.043945312 407.077148438 512.086914062 407.727539062 688 405 c 0
 817 403 907.16796875 344.418945312 898 193 c 0
 891.114524768 79.2730211704 856.680664062 6.654296875 754 -18.4453125 c 5
 735.793945312 -22.8955078125 480 -201 366 -188 c 0
 300.207071376 -180.497297613 321.2421875 -347.481445312 302 -355 c 1
 301.770507812 -353.833984375 l 0
 269 -355 l 1
 255.77734375 -359.594726562 186 -287 211 -221 c 24
 236 -155 306.535713999 -106.548368976 377 -101 c 0
EndSplineSet
Layer: 2
EndChar

StartChar: tml_Pa
Encoding: 25 2986 32
Width: 818
VWidth: 0
Flags: HW
AnchorPoint: "tm_Virama" 400 695 basechar 0
LayerCount: 3
Back
Fore
SplineSet
624 636 m 1
 748 646 l 1
 738.3359375 497.756835938 739.337890625 142.861328125 748 0 c 1
 624 0 l 1
 633.971281224 172.043075268 631.155938243 470.267016147 624 636 c 1
90 70 m 1
 267.110351562 67.5576171875 517.266601562 69.9345703125 731 70 c 1
 731 0 l 1
 90 0 l 1
 90 70 l 1
71 636 m 1
 196 646 l 1
 186.3359375 497.756835938 182.337890625 142.861328125 191 0 c 1
 70 0 l 1
 79.9658203125 182.1015625 77.87890625 403.36328125 71 636 c 1
EndSplineSet
Layer: 2
EndChar

StartChar: tml_Ma
Encoding: 26 2990 33
Width: 1018
VWidth: 0
Flags: HW
AnchorPoint: "tm_Virama" 510 695 basechar 0
LayerCount: 3
Back
Fore
SplineSet
786 0 m 1
 786 67 l 1
 864.91015625 79.224609375 885.833984375 173.70703125 887 271 c 0
 888.553710938 400.635742188 820.600585938 560.424804688 674 542 c 0
 634.155273438 536.9921875 570.19921875 504.180664062 566 373 c 0
 566 44 l 1
 499 44 l 0
 499 359 l 0
 500.102539062 556.48828125 599.360351562 635.63671875 709 647 c 0
 882.551757812 664.987304688 993.788085938 500.74609375 989 322 c 0
 983.455078125 114.948242188 905.790039062 0.5830078125 786 0 c 1
90 70 m 1
 267.110351562 67.5576171875 607.266601562 69.9345703125 821 70 c 1
 791 0 l 1
 90 0 l 1
 90 70 l 1
71 636 m 1
 196 646 l 1
 186.3359375 497.756835938 182.337890625 142.861328125 191 0 c 1
 70 0 l 1
 79.9658203125 182.1015625 77.87890625 403.36328125 71 636 c 1
EndSplineSet
Layer: 2
EndChar

StartChar: tml_Ya
Encoding: 27 2991 34
Width: 1072
VWidth: 0
Flags: HW
AnchorPoint: "tm_Virama" 504 695 basechar 0
LayerCount: 3
Back
Fore
SplineSet
440 636 m 1
 570 646 l 1
 560.3359375 497.756835938 556.337890625 142.861328125 565 0 c 1
 453 0 l 1
 453 144 l 1
 440 169 l 1
 440 636 l 1
473 66 m 1
 995 66 l 1
 995 0 l 1
 473 0 l 1
 473 66 l 1
885 636 m 1
 1012 646 l 1
 1002.3359375 497.756835938 1003.33789062 142.861328125 1012 0 c 1
 890 0 l 1
 885 636 l 1
70 636 m 5
 190 646 l 5
 184.454101562 427.833984375 172.815429688 190.459960938 193.036132812 126 c 4
 206.384765625 83.4462890625 250.38671875 60.3330078125 292 64 c 4
 369.506835938 70.830078125 444.997070312 175.993164062 441 364 c 5
 494 332 l 5
 494 332 485.05859375 273.305664062 473 210 c 4
 457 126 397.001953125 -11.9990234375 237 -15 c 4
 109.36328125 -17.3935546875 70 62 70 160 c 5
 70 636 l 5
EndSplineSet
Layer: 2
EndChar

StartChar: tml_Ra
Encoding: 28 2992 35
Width: 790
VWidth: 0
Flags: HW
LayerCount: 3
Back
Fore
SplineSet
505 44 m 17
 424.864257812 -52.30859375 287.409179688 -185.546875 150 -318 c 9
 221 -389 l 17
 358.462890625 -235.666992188 467.010742188 -142.333007812 618 1 c 9
 627 20 l 25
 505 44 l 17
146 591 m 25
 447 591 l 1
 796 591 l 24
 778 660 l 17
 585.666992188 651.356445312 173.333007812 652.305664062 71 660 c 1
 146 591 l 25
504 20 m 1
 628 20 l 1
 618.3359375 168.243164062 619.337890625 491.138671875 628 634 c 1
 504 634 l 1
 513.971679688 461.95703125 511.15625 185.733398438 504 20 c 1
71 0 m 1
 196 0 l 1
 186.3359375 148.243164062 182.337890625 511.138671875 191 654 c 1
 71 659 l 1
 80.9658203125 476.8984375 77.87890625 232.63671875 71 0 c 1
EndSplineSet
Layer: 2
EndChar

StartChar: tml_La
Encoding: 30 2994 37
Width: 1081
VWidth: 0
Flags: HW
AnchorPoint: "tm_Virama" 510 695 basechar 0
LayerCount: 3
Back
SplineSet
730.140625 -20 m 4
 579.752929688 -20 497.684570312 73.541015625 527 291 c 4
 547.579101562 443.653320312 476.771484375 521.421875 355 523 c 4
 207.38169691 524.913092673 108.19921875 394.180664062 104 253 c 4
 99.4619140625 112.9609375 164.703125871 42.9748560589 238 43 c 4
 300.62890625 43.021484375 328.465820312 101.497070312 329 151 c 4
 329.424804688 191.924804688 307.315429688 244.819335938 239 245 c 4
 193.002929688 245.12890625 144.279296875 208.454101562 123 117 c 5
 103 151 l 5
 103.192382812 257.809570312 191.12890625 323.932617188 274 323 c 4
 371.002929688 321.908203125 438.759765625 255.786132812 435 153 c 4
 432.03515625 76.6982421875 378.366210938 -19.7841796875 253 -20 c 4
 113.825195312 -20.271484375 44.3095703125 101.659179688 45 239 c 4
 46.1025390625 423.48828125 175.154412908 605.251406098 394 606 c 4
 555.016601562 606.55078125 691.118164062 525.106445312 657 298 c 4
 627.091796875 98.9150390625 706.880439808 62.651240053 768 62 c 4
 877.5234375 60.8330078125 926.150390625 202.674804688 928 302 c 4
 930.0703125 413.201171875 873.553710938 486.99609375 774.12109375 544.540039062 c 5
 783.66015625 591.482421875 813.733398438 624.116210938 852 625.418945312 c 4
 976.881835938 629.669921875 1004.04254097 451.215867826 1002.07128906 317 c 4
 1002.30761719 167.434570312 917 -20 730.140625 -20 c 4
EndSplineSet
Fore
SplineSet
776.140625 -22 m 0
 616.65234375 -27.375 513.684570312 63.541015625 543 281 c 0
 563.579101562 433.653320312 491.772460938 546.420898438 360 548 c 0
 212.380859375 549.768554688 123.19921875 414.180664062 119 253 c 0
 115.350585938 112.934570312 168.703125 46.974609375 252 47 c 0
 314.62890625 47.01953125 344.465820312 101.497070312 345 151 c 0
 345.424804688 191.924804688 319.315429688 248.78515625 251 249 c 0
 210.002929688 249.12890625 156.279296875 208.454101562 135 117 c 1
 115 151 l 1
 115.192382812 257.809570312 203.126953125 326.240234375 286 327 c 0
 385.002929688 327.908203125 456.759765625 255.786132812 453 153 c 0
 450.03515625 76.6982421875 388.366210938 -19.7861328125 263 -20 c 0
 103.825195312 -20.271484375 49.3095703125 101.659179688 50 239 c 0
 51.1025390625 423.48828125 147.154296875 645.334960938 396 646 c 0
 577.016601562 646.483398438 704.000976562 524.14453125 664 278 c 0
 636.45703125 108.513671875 729.798828125 52.357421875 810 63 c 4
 917.215820312 77.2275390625 940.150390625 178.674804688 942 278 c 0
 944.657226562 420.669921875 854.921235408 496.515567593 756.12109375 555.540039062 c 1
 755.66015625 602.482421875 798.72265625 652.49609375 847 653.418945312 c 0
 981.896364633 655.997573528 1036.04296875 441.215820312 1034.07128906 307 c 0
 1034.30761719 157.434570312 963.768554688 -15.6767578125 776.140625 -22 c 0
EndSplineSet
Layer: 2
SplineSet
730.140625 -20 m 4
 579.752929688 -20 497.684570312 73.541015625 527 291 c 4
 547.579101562 443.653320312 476.771484375 521.421875 355 523 c 4
 207.38169691 524.913092673 108.19921875 394.180664062 104 253 c 4
 99.4619140625 112.9609375 164.703125871 42.9748560589 238 43 c 4
 300.62890625 43.021484375 328.465820312 101.497070312 329 151 c 4
 329.424804688 191.924804688 307.315429688 244.819335938 239 245 c 4
 193.002929688 245.12890625 144.279296875 208.454101562 123 117 c 5
 103 151 l 5
 103.192382812 257.809570312 191.12890625 323.932617188 274 323 c 4
 371.002929688 321.908203125 438.759765625 255.786132812 435 153 c 4
 432.03515625 76.6982421875 378.366210938 -19.7841796875 253 -20 c 4
 113.825195312 -20.271484375 44.3095703125 101.659179688 45 239 c 4
 46.1025390625 423.48828125 175.154412908 605.251406098 394 606 c 4
 555.016601562 606.55078125 691.118164062 525.106445312 657 298 c 4
 627.091796875 98.9150390625 706.880439808 62.651240053 768 62 c 4
 877.5234375 60.8330078125 926.150390625 202.674804688 928 302 c 4
 930.0703125 413.201171875 873.553710938 486.99609375 774.12109375 544.540039062 c 5
 783.66015625 591.482421875 813.733398438 624.116210938 852 625.418945312 c 4
 976.881835938 629.669921875 1004.04254097 451.215867826 1002.07128906 317 c 4
 1002.30761719 167.434570312 917 -20 730.140625 -20 c 4
EndSplineSet
EndChar

StartChar: tml_Llla
Encoding: 32 2996 39
Width: 1246
VWidth: 0
Flags: HW
AnchorPoint: "tm_Virama" 524 695 basechar 0
LayerCount: 3
Back
Fore
SplineSet
609 235 m 0
 610.553710938 364.635742188 540.86279803 576.393172189 329 553 c 0
 183.654212958 536.951410749 122.19921875 364.180664062 118 253 c 0
 112.711914062 112.987304688 178.703125 42.974609375 252 43 c 0
 314.62890625 43.021484375 342.465820312 101.497070312 343 151 c 0
 343.424804688 191.924804688 321.315429688 244.819335938 253 245 c 0
 207.002929688 245.12890625 158.279296875 208.454101562 137 117 c 1
 117 151 l 1
 117.192382812 257.809570312 210.12890625 323.932617188 288 323 c 0
 385.001953125 321.837890625 452.759765625 255.786132812 449 153 c 0
 446.03515625 76.6982421875 392.366210938 -19.7841796875 267 -20 c 0
 127.825195312 -20.271484375 64.8837890625 101.783203125 59 239 c 0
 50.1025390625 446.48828125 154.035139397 659.976024828 363 668 c 0
 578.715820312 676.283203125 645.788085938 470.74609375 651 312 c 0
 609 235 l 0
679 591 m 25
 604 660 l 1
 706.333007812 652.305664062 1048.66699219 651.356445312 1241 660 c 9
 1259 591 l 24
 910 591 l 1
 679 591 l 25
977 0 m 1
 984.15625 165.733398438 986.971679688 461.95703125 977 634 c 1
 1101 634 l 1
 1092.33789062 491.138671875 1091.3359375 148.243164062 1101 0 c 1
 977 0 l 1
604 0 m 1
 610.87890625 232.63671875 613.965820312 476.8984375 604 659 c 1
 724 654 l 1
 715.337890625 511.138671875 719.3359375 148.243164062 729 0 c 1
 604 0 l 1
EndSplineSet
Layer: 2
EndChar

StartChar: tml_Va
Encoding: 33 2997 40
Width: 1086
VWidth: 0
Flags: HW
AnchorPoint: "tm_Virama" 510 695 basechar 0
LayerCount: 3
Back
SplineSet
508 62 m 5
 932 62 l 5
 932 0 l 5
 496 0 l 5
 476 61 l 5
 533.91015625 116.224609375 566.995117188 203.79296875 567 291 c 4
 567.004882812 393.7109375 506.771484375 516.421875 345 513 c 4
 197.405273438 509.737304688 108.19921875 364.180664062 104 253 c 4
 98.7118130433 112.987256549 164.703125871 42.9748560589 238 43 c 4
 300.62890625 43.021484375 328.465820312 101.497070312 329 151 c 4
 329.424804688 191.924804688 307.315429688 244.819335938 239 245 c 4
 193.002929688 245.12890625 144.279296875 208.454101562 123 117 c 5
 103 151 l 5
 103.192382812 257.809570312 191.12890625 323.932617188 274 323 c 4
 371.002929688 321.908203125 438.759765625 255.786132812 435 153 c 4
 432.03515625 76.6982421875 378.366210938 -19.7841796875 253 -20 c 4
 113.825195312 -20.271484375 44.3095703125 101.659179688 45 239 c 4
 46.1025390625 423.48828125 201.154864291 605.201837448 410 606 c 4
 561.016519398 606.577153641 689.573242188 514.805664062 688 336 c 4
 686.284179688 231.454101562 621.409179688 77.3662109375 521.517578125 25 c 5
 516.938476562 38.6630859375 512.397460938 51.072265625 508 62 c 5
852 592 m 5
 976 602 l 5
 970.668945312 510.4609375 968.055664062 432.109375 966.071289062 297 c 4
 966.227539062 198.109375 965.544921875 84 965 0 c 5
 846 0 l 5
 852 592 l 5
EndSplineSet
Fore
SplineSet
538 62 m 5
 972 62 l 1
 972 0 l 1
 526 0 l 5
 506 61 l 5
 554.91015625 143.224609375 585.833984375 213.70703125 587 311 c 4
 588.553626399 440.635419482 517.316853976 571.836888748 335 553 c 4
 176.873722959 536.662469905 108.19921875 364.180664062 104 253 c 4
 98.7118130433 112.987256549 164.703125871 42.9748560589 238 43 c 4
 300.62890625 43.021484375 328.465820312 101.497070312 329 151 c 4
 329.424804688 191.924804688 307.315429688 244.819335938 239 245 c 4
 193.002929688 245.12890625 144.279296875 208.454101562 123 117 c 5
 103 151 l 5
 103.192382812 257.809570312 196.12890625 323.932617188 274 323 c 4
 371.002117256 321.838261575 438.759765625 255.786132812 435 153 c 4
 432.03515625 76.6982421875 378.366210938 -19.7841796875 253 -20 c 4
 113.825195312 -20.271484375 50.8840818886 101.783546185 45 239 c 4
 36.1025390625 446.48828125 170.035103013 649.976023431 379 658 c 4
 594.715820312 666.283203125 703.787750244 520.745840009 699 342 c 4
 695.396035215 207.449599484 621.409179688 67.3662109375 551.517578125 25 c 5
 546.938476562 38.6630859375 542.397460938 51.072265625 538 62 c 5
889 632 m 1
 1016 652 l 1
 1006.13183594 482.860351562 1006.27246094 146.15625 1015 0 c 1
 893 0 l 1
 889 632 l 1
EndSplineSet
Layer: 2
EndChar

StartChar: tml_MatraAa
Encoding: 38 3006 45
Width: 1054
VWidth: 0
Flags: HW
LayerCount: 3
Back
Fore
SplineSet
508 62 m 1
 942 62 l 1
 942 0 l 1
 496 0 l 1
 476 61 l 1
 533.91015625 116.224609375 566.995117188 203.79296875 567 291 c 0
 567.004882812 393.7109375 506.771484375 516.421875 345 513 c 0
 197.405273438 509.737304688 108.19921875 394.180664062 104 253 c 0
 99.4619140625 112.9609375 164.703125871 42.9748560589 238 43 c 0
 300.62890625 43.021484375 328.465820312 101.497070312 329 151 c 0
 329.424804688 191.924804688 307.315429688 244.819335938 239 245 c 0
 193.002929688 245.12890625 144.279296875 208.454101562 123 117 c 1
 103 151 l 1
 103.192382812 257.809570312 191.12890625 323.932617188 274 323 c 0
 371.002929688 321.908203125 438.759765625 255.786132812 435 153 c 0
 432.03515625 76.6982421875 378.366210938 -19.7841796875 253 -20 c 0
 113.825195312 -20.271484375 44.3095703125 101.659179688 45 239 c 0
 46.1025390625 423.48828125 191.154667931 605.251406971 410 606 c 4
 571.016601562 606.55078125 679.573242188 515.805664062 678 337 c 4
 676.284179688 232.454101562 621.409179688 77.3662109375 521.517578125 25 c 1
 516.938476562 38.6630859375 512.397460938 51.072265625 508 62 c 1
859 592 m 1
 989 602 l 1
 983.668945312 510.4609375 978.055664062 432.109375 976.071289062 297 c 0
 976.227539062 198.109375 975.544921875 84 975 0 c 1
 858 0 l 1
 871.889648438 249.307617188 870.393554688 455.765625 859 592 c 1
EndSplineSet
Layer: 2
EndChar

StartChar: tml_Virama
Encoding: 49 3021 56
Width: 0
VWidth: 0
Flags: HW
AnchorPoint: "tm_Virama" 2 829.175 mark 0
LayerCount: 3
Back
Fore
SplineSet
-86 963 m 4
 -86 1009 -48 1047 -2 1047 c 4
 44 1047 82 1009 82 963 c 4
 82 917 44 879 -2 879 c 4
 -48 879 -86 917 -86 963 c 4
EndSplineSet
Layer: 2
EndChar

StartChar: uni0039
Encoding: 426 57 85
Width: 595
VWidth: 153
Flags: HW
LayerCount: 3
Back
Fore
SplineSet
391.310546875 444.271484375 m 0
 387.267578125 333.045898438 333.616210938 284.671875 266.477539062 281.803710938 c 0
 196.327148438 278.806640625 112.826171875 343.48046875 116.870117188 470.4453125 c 0
 120.104492188 575.57421875 152.462890625 655.412109375 231.407226562 655.8515625 c 0
 323.59765625 656.364257812 396.071289062 575.25390625 391.310546875 444.271484375 c 0
277.798828125 725.989257812 m 0
 97.4482421875 728.415039062 5.5703125 591.74609375 1.4443359375 449.418945312 c 0
 -3.408203125 282.020507812 119.3125 214.76953125 223.850585938 214.08984375 c 0
 289.473632812 213.663085938 370.783203125 233.384765625 425.219726562 319.336914062 c 1
 402.252929688 331.651367188 l 1
 402.83984375 173.721679688 338.208007812 -24.505859375 177 -18.3310546875 c 0
 113.787109375 -15.91015625 54.01953125 19.279296875 20.9072265625 53.83984375 c 1
 -4.6767578125 -66.2412109375 l 1
 33.775390625 -83.7470703125 90.447265625 -90.919921875 145 -88.263671875 c 0
 323.840820312 -79.5556640625 533.568359375 72.5888671875 525.94921875 429 c 0
 523.583007812 539.674804688 476.00390625 723.323242188 277.798828125 725.989257812 c 0
EndSplineSet
Layer: 2
EndChar
